# xmcd
#
# Track frame offsets: 
#        150
#        17832
#        31746
#        50795
#        67076
#        86942
#        100354
#        114562
#        124376
#        140260
#        158143
#        166897
#
# Disc length: 2450 seconds
#
# Revision: 0
# Processed by: cddbd v1.5.2PL0 Copyright (c) Steve Scherf et al.
# Submitted via: ExactAudioCopy v0.99pb5
#
DISCID=a809900c
DTITLE=Beccy Cole - Pre Loved
DYEAR=2010
DGENRE=Country
TTITLE0=It's Only The Beginning
TTITLE1=Here You Come Again
TTITLE2=Insensitive
TTITLE3=Danny's Song
TTITLE4=You Weren't In Love with Me
TTITLE5=Secret Live
TTITLE6=Only Love Can Break a Heart
TTITLE7=You Ain't Woman Enough to Take My Man
TTITLE8=This Shirt
TTITLE9=Across the Great Divide
TTITLE10=(You're so Square) Baby I Don't Care
TTITLE11=Biggest Disappointment
EXTD=
EXTT0=
EXTT1=
EXTT2=
EXTT3=
EXTT4=
EXTT5=
EXTT6=
EXTT7=
EXTT8=
EXTT9=
EXTT10=
EXTT11=
PLAYORDER=
